# xmcd
#
# Track frame offsets:
# 150
# 16125
# 36745
# 56235
# 70050
# 91580
# 106800
# 125320
# 142832
# 160642
#
# Disc length: 2385 seconds
#
#
# Revision: 2
# Processed by: cddbd v1.4PL0 Copyright (c) Steve Scherf et al.
# Submitted via: FreeRIP 2.10 
#
DISCID=78094f0a
DTITLE=Patty Loveless - Long Stretch Of Lonesome
DYEAR=1997
DGENRE=Country
TTITLE0=The Party Ain't Over Yet
TTITLE1=To Have You Back Again
TTITLE2=I Don't Want To Feel Like That
TTITLE3=High On Love
TTITLE4=Like Water Into Wine
TTITLE5=That's Exactly What I Mean
TTITLE6=You Don't Seem To Miss Me
TTITLE7=Too Many Memories
TTITLE8=Long Stretch Of Lonesome
TTITLE9=Where I'm Bound
EXTD=
EXTT0=
EXTT1=
EXTT2=
EXTT3=
EXTT4=
EXTT5=
EXTT6=
EXTT7=
EXTT8=
EXTT9=
PLAYORDER=
